<svg xmlns="http://www.w3.org/2000/svg" width="1000" height="537.225" viewBox="0 0 264.583 142.141"><path fill-rule="evenodd" d="M131.652 0c29.532 0 53.482 23.95 53.482 53.482 0 29.53-23.95 53.48-53.482 53.48s-53.48-23.95-53.48-53.48C78.172 23.95 102.12 0 131.652 0"/><path fill="#fff" fill-rule="evenodd" d="M102.484 76.623c-3.149 3.072-14.182-.56-20.226-5.157-.917-2.465-1.586-4.912-2.123-7.534 5.617 3.898 13.752 6.24 19.33 6.87zm3.928 5.858-.41-1.306-1.54-2.656c7.575-5.266 15.734-11.612 19.502-18.98 1.454.628 2.503 1.477 2.97 2.645-1.941 7.315-7.192 12.746-14.985 19.778-.395.366-1.787.879-1.486 1.578.35.81 2.533 2.435 3.273 2.574.28.053 1.621-1.012 1.87-1.374 1.795-1.766 7.208-5.803 9.375-9.807 1.61.342 2.952.935 3.453 2.312-1.896 4.579-7.318 10.299-8.132 11.248-.95 1.21-2.067 1.737-3.24 1.386-2.303-.973-2.495-1.574-4.07-2.704-1.55.345-2.21.681-2.924.882-6.145 2.338-11.558 1.81-17.903-.027l-.136-.07c-2.064-2.347-3.954-4.972-5.573-7.664 6.923 2.896 16.087 4.792 19.956 2.185M79.174 49.818c.23-2.073.395-4.06.805-5.962l.035-.141c6.817 4.573 13.51 7.952 13.781 7.3l.268-3.898-12.1-10.83c3.532-10.16 10.146-19.008 18.847-25.306-1.799 5.065-1.628 10.13-.351 15.193.247.8 2.146.504 2.305-.389-.294-7.123.938-13.752 5.535-19.283 3.01-1.489 6.192-2.748 9.52-3.653 1.817-.522 3.606-.885 5.364-1.2-3.3 4.207-5.936 8.6-7.557 13.315-.136.401-.269.82-.301 1.241-.513.959 1.165 1.416 1.813 1.144 7.442-10.237 9.698-12.203 13.982-16.31l.212-.033c3.866-.018 7.902.363 11.343 1.153a43.06 43.06 0 0 1 2.736.666l.448.13.965.286c-5.13 3.3-11.057 7.572-11.299 8.332-.245.625.133 1.056.976.932 5.384-2.01 8.341-2.99 15.945-5.7l1.99-.683c17.803 8.533 29.836 27.093 29.692 47.744-.204 29.01-23.898 52.466-52.964 52.091-12.242-.156-23.676-4.52-32.566-11.65 16.022 2.383 25.758-.922 32.672-2.659 2.648-.666 5.532-.245 7.519.077 8.418 1.353 12.708 4.912 19.224 2.61 7.984-2.69 10.187-19.655 2.627-27.578-10.358-10.438-13.634-20.598-12.106-29.417 1.285-5.499 7.943-4.868 7.288.192-1.173 6.065-1.226 10.086.254 12.861.542 1.023 1.126 2.17 1.837 3.037.165-4.962 1.784-7.466 3.379-9.61.852 1.953.663 2.534 1.716 3.477 1.503-3.158-.684-12.578-3.188-15.972-2.662-4.838-12.946-6.091-16.069 3.509-3.246 13.224.793 17.467 2.297 27.825 1.604 7.692-6.507 12.448-9.453-.914-1.521-10.689-.377-18.773-.71-22.966-.304-4.573-2.663-7.563-7.086-8.963-.283-4.736 1.242-9.93 4.48-15.344-1.319-.095-2.628-.118-4.081.427-1.51.602-2.327 1.97-2.74 3.45-.914 4.101-1.114 7.958-1.259 11.873-3.753 1.395-6.693 3.521-9.181 6.057-2.297-3.8-1.952-10.668-.64-15.648-1.247.321-3.385.584-4.22 2.02-1.403 3.95-1.382 7.964-.262 11.835.472 1.619 1.16 3.031 1.837 4.317.484 1.306-.51 3.305-.578 3.41-4.788 8.643-16.564 11.512-17.027 12.06l-.26 4.202c-2.562-.31-9.992-3.913-15.694-8.657m44.068-1.339c-5.5 6.278-15.925 10.703-27.306 12.428.362 2.377.952 4.609 1.952 6.587 9.954-.292 26.23-8.668 27.783-16.62.457-1.578-1.645-2.294-2.43-2.395"/><path fill="#dc2f33" fill-rule="evenodd" d="M162.862 47.327c-.997 3.016-.882 7.577.67 10.617.468.864.023.722-.428.448-2.026-1.238-4.06-3.376-5.322-5.38-1.236-1.85-1.056-3.981-.442-5.703.645-1.648 2.323-4.376 3.659-5.694.63 1.371.619 4.556 1.863 5.712"/><path fill="none" stroke="#000" stroke-linejoin="round" stroke-miterlimit="2.613" stroke-width=".15" d="M0 0c-.619-1.559-.666-3.954.107-5.585.235-.465-.004-.38-.244-.225-1.078.697-2.138 1.865-2.778 2.947-.631.999-.48 2.112-.103 3.002.393.849 1.376 2.24 2.139 2.9C-.568 2.306-.652.636 0 0z" transform="matrix(1.8257 -.08139 -.0848 -1.90241 162.862 47.326)"/><path fill-rule="evenodd" d="M160.656 44.98c.377.18.457.97.18 1.763-.28.794-.811 1.286-1.191 1.106-.378-.183-.457-.973-.18-1.763.28-.793.814-1.289 1.191-1.106m1.628 8.285c.121 1.66.593 3.39 1.247 4.676.47.87.027.725-.424.448-1.333-.852-2.74-2.043-3.821-3.352 1.079-.345 1.748-1.041 2.288-2.064z"/><path fill="none" stroke="#000" stroke-miterlimit="2.613" stroke-width=".15" d="M0 0c.025-.873.241-1.793.567-2.483.236-.466-.003-.381-.243-.225A9.228 9.228 0 0 0-1.683-.86c.599.156.982.506 1.302 1.03z" transform="matrix(1.8257 -.08139 -.0848 -1.90241 162.284 53.264)"/><path d="M12.313 142.14c6.814 0 12.313-4.939 12.313-12.959 0-8.66-6.139-13.029-12.313-13.029S0 120.522 0 129.182c0 8.02 5.499 12.958 12.313 12.958m0-1.362c-4.181 0-8.02-3.353-8.02-11.635 0-8.586 4.178-11.635 8.02-11.635 3.842 0 8.02 3.049 8.02 11.635 0 8.282-3.84 11.635-8.02 11.635m15.932-2.334c0 2.108-.601 2.223-2.674 2.597v.563h9.037v-.563c-1.92-.076-3.202-.224-3.202-2.824v-8.471c0-1.203 1.66-3.087 2.562-3.087.902 0 1.28 1.318 2.598 1.318.905 0 1.433-.717 1.433-1.657 0-1.242-.755-2.035-2.035-2.035-1.43 0-2.712.752-4.481 3.426h-.077v-3.35l-.186-.076a83.67 83.67 0 0 1-5.572 2.035v.601c.339-.077.751-.15 1.28-.15.6 0 1.317.038 1.317 2.258zm9.757 3.162h8.925v-.566c-2.598-.147-2.787-.79-2.787-3.275v-13.366l-.153-.115c-1.955.717-3.877 1.433-5.835 2.073v.563c.49-.074.979-.15 1.507-.15.601 0 1.318.038 1.318 2.261v8.734c0 2.94-.64 3.163-2.975 3.275zm2.335-23.797c0 .717.528 1.92 1.884 1.92 1.126 0 1.955-.829 1.955-1.92 0-1.052-.829-1.92-1.955-1.92-1.32 0-1.884 1.204-1.884 1.92m22.371 17.623c-.867 1.394-2.486 3.953-5.838 3.953-2.483 0-5.535-1.545-5.986-8.208h11.709c-.413-4.933-3.087-6.89-6.626-6.89-3.013 0-7.68 2.296-7.68 9.263 0 5.346 2.86 8.439 7.04 8.439 5.423 0 7.608-5.127 7.982-6.295zm-11.709-5.461c.602-3.314 2.07-4.328 4.14-4.328 2.975 0 3.35 2.52 3.615 4.328zm15.553 8.247c0 2.223-.566 2.71-2.335 2.824v.564h7.985v-.564c-1.961-.115-2.486-.716-2.486-1.957v-10.582c1.43-1.392 2.598-2.147 3.727-2.147 2.223 0 2.898 1.356 2.898 3.653v7.87c0 2.86-.979 3.048-2.37 3.163v.564h7.831v-.564c-1.843-.15-2.297-.716-2.297-2.485v-8.621c0-4.633-2.674-5.65-4.405-5.65-2.22 0-3.653 1.318-5.499 3.049v-2.975l-.262-.074c-1.734.64-3.5 1.206-5.195 1.693v.64c.15-.074.563-.148 1.09-.148.605 0 1.318.038 1.318 2.409zm24.895-13.556h-3.8v-4.367c0-.303 0-.492-.266-.492-1.395 1.996-1.961 2.825-3.388 4.293-.832.829-1.657 1.056-1.657 1.51l.147.262h1.996V137.2c0 3.768 1.545 4.791 3.465 4.791 1.734 0 3.503-1.25 4.405-2.868l-.49-.413c-.412.486-1.09 1.315-2.293 1.315-1.92 0-1.92-2.22-1.92-3.388v-10.768h3.8zm10.397-7.267c3.087.15 3.614.601 3.614 3.39v16.718c0 2.672-.45 3.314-3.614 3.388v.714h12.578c8.356 0 9.11-5.195 9.11-6.626 0-3.953-3.013-5.76-6.288-6.439v-.077c1.695-.412 5.009-1.24 5.009-5.419 0-5.838-6.59-6.363-9.866-6.363h-10.543zm7.456 11.935c3.612 0 4.818.189 6.098.566 1.96.602 3.803 1.843 3.803 4.933 0 5.045-4.555 5.384-7.04 5.384-2.183 0-2.86-.15-2.86-1.545zm0-10.128c0-.566.074-1.09.829-1.09.377 0 .902-.04 1.692-.04 2.675 0 6.59.717 6.59 5.196 0 4.482-4.482 4.556-5.534 4.556l-3.577.038zm17.287 22.404h8.887v-.566c-2.185-.112-2.825-.412-2.825-2.594v-22.482l-.15-.074c-1.996.64-3.99 1.167-5.986 1.654v.604c.451-.038.79-.076 1.28-.076 1.468 0 1.692.604 1.692 2.297v17.962c0 2.07-.675 2.562-2.898 2.71zm19.961-4.631c0 1.13-.115 1.583-1.28 2.147-.338.188-1.506.678-2.334.678-1.392 0-2.486-1.168-2.486-2.94v-.074c0-1.28.416-3.39 6.1-5.272zm5.838 2.147c-.415.339-.905.716-1.695.716-1.094 0-1.094-1.094-1.094-2.185v-7.344c0-2.259 0-6.024-5.61-6.024-4.367 0-6.137 2.674-6.137 4.18 0 .602.452 1.658 1.62 1.658.978 0 1.695-.829 1.695-1.619 0-.339-.19-.905-.19-1.471 0-1.165 1.43-1.843 2.675-1.843 1.13 0 2.898.413 2.898 3.125v2.297c-6.138 2.41-9.414 3.689-9.414 7.454 0 2.524 1.958 3.924 3.992 3.924 2.073 0 4.066-1.512 5.46-2.756.19 2.718 1.77 2.756 2.448 2.756.601 0 1.77-.038 3.352-1.89zm14.538-3.389c-1.28 1.922-2.674 3.538-5.387 3.538-3.16 0-5.758-2.86-5.758-7.192 0-5.534 3.464-6.702 4.856-6.702 1.996 0 2.185.679 2.485 1.808l.224.828c.227.829.87 1.808 1.846 1.734 1.132-.077 1.734-.793 1.734-1.657 0-.681-.49-1.846-1.619-2.636-.943-.604-2.636-1.167-3.992-1.167-4.066 0-8.436 3.122-8.436 9.299 0 5.95 4.03 8.403 7.044 8.403 3.049 0 5.496-1.624 7.528-5.917zm1.473 5.873h8.81v-.566l-.752-.035c-1.241-.077-2.073-.377-2.073-1.92v-6.816h.077l5.195 6.929c.451.64.793.978.793 1.24 0 .49-.49.602-.793.602h-.714v.566h8.209v-.566c-1.017-.073-2.486-.336-4.405-2.748l-5.761-7.303 1.09-1.017c5.084-4.744 6.14-4.744 8.132-4.744v-.566h-7.677v.527c1.577 0 1.88.301 1.88.714 0 .342-.303.755-.866 1.282-1.507 1.28-3.727 3.353-5.083 4.52l-.077-.076v-15.665l-.147-.074c-1.996.64-3.993 1.167-5.838 1.654v.604c.3-.038.64-.076 1.129-.076 1.468 0 1.695.604 1.695 2.297v18.15c0 2.035-.303 2.109-2.824 2.521zm34.873-25.453h-.79c-.077.413-.263 1.28-1.319 1.28-.94 0-2.975-1.28-5.233-1.28-3.391 0-6.817 2.108-6.817 6.401 0 3.727 2.412 5.384 5.876 7.38 5.534 3.237 6.136 4.517 6.136 6.664 0 2.034-1.507 4.18-4.52 4.18-5.08 0-7.003-4.897-7.72-6.663h-.863l1.13 7.987h.828c0-.607.377-1.247 1.167-1.247 1.13 0 2.975 1.286 5.835 1.286 5.387 0 7.947-3.621 7.947-6.823 0-7.72-12.579-8.471-12.579-14.12 0-2.335 1.923-3.503 3.804-3.503 3.954 0 6.363 3.39 7.002 6.478h.944zm22.07 8.509v.566c.902.189 1.656.336 1.656 1.242 0 .45-.227 1.468-.64 2.411l-3.39 8.356-3.01-8.058c-.567-1.468-.79-1.88-.79-2.559 0-1.091.94-1.203 2.181-1.392v-.566h-7.642v.566c1.545.189 1.958.451 3.352 4.706l-3.426 7.492c-1.734-4.818-3.957-9.603-3.957-10.918 0-1.056.867-1.206 1.734-1.28v-.566h-6.779v.566c.94.074 1.245.563 1.996 2.37l5.084 12.877c.527 1.288.716 1.666.978 1.666.228 0 .413-.416.944-1.477l4.213-9.035 3.43 8.884c.527 1.362.6 1.628.905 1.628.297 0 .45-.378 1.052-1.852l5.195-13.03c.567-1.39.755-1.768 1.545-2.03v-.567zm15.593 12.313c0 1.13-.115 1.583-1.28 2.147-.339.188-1.507.678-2.335.678-1.392 0-2.486-1.168-2.486-2.94v-.074c0-1.28.416-3.39 6.1-5.272zm5.838 2.147c-.416.339-.905.716-1.696.716-1.094 0-1.094-1.094-1.094-2.185v-7.344c0-2.259 0-6.024-5.61-6.024-4.367 0-6.136 2.674-6.136 4.18 0 .602.45 1.658 1.618 1.658.98 0 1.696-.829 1.696-1.619 0-.339-.189-.905-.189-1.471 0-1.165 1.43-1.843 2.674-1.843 1.13 0 2.899.413 2.899 3.125v2.297c-6.139 2.41-9.415 3.689-9.415 7.454 0 2.524 1.958 3.924 3.992 3.924 2.073 0 4.066-1.512 5.461-2.756.189 2.718 1.77 2.756 2.447 2.756.602 0 1.77-.038 3.353-1.89zm2.563-.904c0 2.223-.566 2.71-2.335 2.824v.564h7.984v-.564c-1.96-.115-2.485-.716-2.485-1.957v-10.582c1.43-1.392 2.597-2.147 3.726-2.147 2.224 0 2.899 1.356 2.899 3.653v7.87c0 2.86-.98 3.048-2.37 3.163v.564h7.83v-.564c-1.842-.15-2.294-.716-2.294-2.485v-8.621c0-4.633-2.677-5.65-4.408-5.65-2.22 0-3.653 1.318-5.498 3.049v-2.975l-.263-.074c-1.734.64-3.5 1.206-5.195 1.693v.64c.15-.074.563-.148 1.09-.148.605 0 1.319.038 1.319 2.409z"/></svg>