<svg xmlns="http://www.w3.org/2000/svg" width="327" height="92.5"><path fill="#dc0000" d="M75.261 47.2c-2.534-2.79-4.577-6.398-3.021-10.17 1.361-2.884 2.579-5.82 3.165-9.136.233 3.468 2.292 6.566 3.293 9.883.377 1.605.41 3.26-.215 4.922-.659 1.802-1.733 3.35-3.022 4.737l-.2-.236"/><path fill="#fff" d="M88.528 45.567c-.437-.185-.83-.51-1.14-.87-.36-.454-8.197-10.663-8.197-10.663-.587-.764-.138-1.521.797-1.353 2.28.41 3.963-.65 5.39-2.901 1.34-2.015 1.313-4.956.012-7.005-1.494-2.138-4.527-2.946-7.162-2.57-4.516.645-7.854 4.754-8.91 9.221-1.08 5.13-.31 10.007 1.416 14.631.388.938.902 1.897 1.522 2.717.648.847-.016 1.723-.985 1.29-5.396-2.39-10.156-6.802-12.663-12.745-2.757-6.398-2.701-14.452.58-20.956 2.58-4.978 7.14-9.631 12.841-11.612C77.996.276 85.932.787 91.716 4.109c7.057 3.592 12.353 12.448 12.37 20.412.233 8.177-3.32 15.613-9.486 20.367-1.805 1.358-4.196 1.588-6.072.679"/><path fill="#003380" d="M94.101 44.209c-1.571 1.184-3.647 1.37-5.24.584 0 0-.427-.163-.842-.64-.354-.455-8.175-10.641-8.175-10.641 2.718.494 4.688-.842 6.227-3.267 1.538-2.312 1.483-5.612.016-7.93-1.732-2.514-5.147-3.35-7.975-2.952-4.954.713-8.496 5.18-9.603 9.861-1.129 5.343-.32 10.394 1.45 15.13.41 1.005.963 2.044 1.644 2.936-5.225-2.312-9.818-6.578-12.232-12.302-2.667-6.18-2.612-13.964.554-20.232 2.502-4.833 6.918-9.317 12.392-11.214 5.74-2.385 13.433-1.897 19.012 1.313 6.78 3.446 11.91 12.01 11.927 19.666.232 7.913-3.2 15.097-9.155 19.688"/><path fill="#dc0000" d="M57.23 78.91V39.882c2.208 3.592 5.197 6.516 8.567 8.66V78.91H57.23M10.39 66.366V78.91H1.717V41.773c3.642-.208 7.278-.264 10.92-.264 8.645 0 13.526 3.53 13.526 10.922 0 2.817-.907 5.242-2.728 7.212-1.423 1.571-3.194 2.643-5.291 3.238a114.835 114.835 0 0 1 1.86 2.582l9.414 13.447H18.68l-8.29-12.544zm1.582-17.269c-.586 0-1.118.017-1.582.05v8.256c.404.017.868.028 1.383.028 2.718 0 5.413-1.15 5.413-4.321 0-2.587-1.39-4.013-5.214-4.013M52.89 66.159l-.127.886H37.211c.27 3.497 2.164 5.107 5.944 5.107 3.21 0 5.396-.774 8.24-2.11l.875 7.358c-3.47 1.397-6.442 2.032-10.189 2.032-8.966 0-13.576-4.906-13.576-14.256 0-4.248 1.106-7.795 3.403-10.55 2.33-2.835 5.54-4.221 9.509-4.221 3.764 0 6.785 1.212 8.894 3.749 1.893 2.278 2.79 5.264 2.79 8.84a23.63 23.63 0 0 1-.21 3.165zm-9.176-7.745c-.56-.668-1.35-1.044-2.502-1.044-1.948 0-3.216 1.262-3.725 3.075h7.051c-.11-.887-.41-1.549-.824-2.031M71.166 78.91h8.567V50.977h-8.567V78.91zm27.114-2.043c-.376.381-.852.74-1.372 1.06-1.639 1.01-3.493 1.505-5.535 1.505-2.452 0-4.522-.663-6.05-2.1-1.505-1.447-2.213-3.417-2.213-5.752 0-3.412 1.577-6.095 4.577-7.964 2.618-1.594 6-2.413 10.073-2.531v-.382c0-1.98-.99-3.075-3.935-3.075-3.37 0-5.53 1.032-8.352 2.688l-.808-7.964c3.431-1.257 6.52-1.947 10.184-1.947 3.968 0 7.067.808 9.016 2.677 1.715 1.661 2.463 4.203 2.463 7.363v10.77c0 2.565.083 5.13.204 7.695h-8.257v-1.04c0-.348 0-.679.005-1.004zm-.531-9.39c-4.965.163-6.376 1.533-6.376 3.06 0 1.166.443 1.722 1.992 1.722 1.24 0 2.27-.505 3.15-1.6a5.464 5.464 0 0 0 1.234-3.182m21.856-13.666c1.185-2.216 3.919-3.406 7.35-3.406 5.668 0 8.574 3.294 8.574 9.31V78.91h-8.518V61.326c0-2.62-.853-3.283-2.098-3.283-1.229 0-2.341.606-3.36 2.065-1.012 1.432-1.544 3.177-1.544 5.276V78.91h-8.567V50.977h8.208v1.039c0 .628-.012 1.229-.045 1.795m32.688 25.564c-8.252 0-12.447-4.714-12.447-13.576 0-4.41 1.118-8.053 3.459-10.82 2.518-3.02 6.132-4.468 10.676-4.468 2.28 0 4.14.382 6.315 1.005l-.913 7.958c-1.766-.662-3.542-1.324-5.452-1.324-4.068 0-5.213 3.406-5.213 6.976 0 4.585 1.726 6.403 5.009 6.403 2.551 0 3.724-.538 5.872-1.694l.725 7.997c-2.779 1.083-5.037 1.543-8.03 1.543m35.045-13.216-.128.886H171.66c.271 3.497 2.164 5.107 5.944 5.107 3.21 0 5.402-.774 8.241-2.11l.875 7.358c-3.47 1.397-6.443 2.032-10.19 2.032-8.966 0-13.576-4.906-13.576-14.256 0-4.248 1.107-7.795 3.404-10.55 2.33-2.835 5.54-4.221 9.508-4.221 3.764 0 6.786 1.212 8.894 3.749 1.893 2.278 2.795 5.264 2.795 8.84a23.62 23.62 0 0 1-.215 3.165zm-9.177-7.745c-.559-.668-1.35-1.044-2.502-1.044-1.948 0-3.215 1.262-3.724 3.075h7.05c-.11-.887-.409-1.549-.824-2.031"/><path fill="#19aeff" d="M236.154 82.563a7.451 7.451 0 0 0 2.264 1.28c.797.28 1.65.42 2.563.42h.016c.67 0 1.556-.083 2.258-.386.62-.264 1.096-.708 1.102-1.443v-.04c-.011-.723-.493-1.155-1.113-1.408-.697-.28-1.571-.353-2.225-.353h-4.195a1.886 1.886 0 0 1-1.35-.578 1.94 1.94 0 0 1-.56-1.364l-.005-.006v-.005h.006v-8.133l-.006-.028c0-.039-.005-.095-.01-.157l-.006-.022c-1.4-1.173-2.441-2.391-3.133-3.789-.714-1.43-1.063-3.041-1.063-4.978 0-2.048.543-3.934 1.49-5.533a10.358 10.358 0 0 1 2.678-3.037 10.837 10.837 0 0 1 6.658-2.239v-.006c.454 0 .875.017 1.3.062.421.05.848.13 1.29.258.072.023.133.034.194.05l.05.006c.077-.039.166-.095.243-.14l.1-.067h.006c.774-.472 1.494-.83 2.263-1.083a8.562 8.562 0 0 1 2.519-.399h.138v-.006h.797v.006c.349 0 .68.096.963.27a1.967 1.967 0 0 1 .952 1.678v3.967l-.006.006c0 .135-.016.27-.044.393a1.69 1.69 0 0 1-.122.37c-.188.432-.525.78-.946.982.343.696.581 1.404.736 2.133.16.775.227 1.566.227 2.385v.045a12.104 12.104 0 0 1-.244 2.357 10.904 10.904 0 0 1-.686 2.161c-1.483 3.401-4.61 5.786-8.474 6.219l-.005.735c.63.05 1.25.14 1.849.27.691.15 1.367.358 2.003.622 3.293 1.353 5.612 4.159 5.607 8.435h.005v.006h-.005c0 1.846-.449 3.424-1.229 4.731a8.269 8.269 0 0 1-1.107 1.47c-2.125 2.274-5.44 3.39-8.86 3.39v.006h-.006v-.006c-1.49 0-3.172-.275-4.771-.79a18.92 18.92 0 0 1-.775-.276c-1.317-.5-2.552-1.167-3.537-1.981l-.747-.612-.011-.011a2.152 2.152 0 0 1-.482-.595 2.011 2.011 0 0 1 .023-1.869l1.848-3.362.006-.016a2.21 2.21 0 0 1 .127-.197l.005-.005a1.59 1.59 0 0 1 .15-.18c.271-.292.62-.488 1.013-.567l.016-.005c.078-.012.155-.029.233-.029a1.883 1.883 0 0 1 1.312.415l.166.13c.177.135.404.303.547.443zm5.37-17.886h.005c.83 0 1.522-.342 2.003-.892.493-.55.77-1.32.77-2.15v-.011c0-.859-.277-1.628-.775-2.178-.487-.539-1.19-.875-2.048-.875h-.017c-.835 0-1.544.342-2.037.88-.498.556-.785 1.32-.791 2.167h.006v.011h-.006c0 .842.31 1.605.825 2.161a2.794 2.794 0 0 0 2.053.887h.011m59.088-5.45-.072-.1c-.487-.652-1.228-1.078-2.12-1.078v.005c-.702 0-1.333.068-1.937.225a6.93 6.93 0 0 0-1.787.746l-.742.427-.011.011-.011.006a1.897 1.897 0 0 1-2.58-.741h-.005l-.005-.011-1.871-3.362v-.006l-.011-.011v-.006l-.055-.1-.011-.029-.045-.1v-.018a1.937 1.937 0 0 1-.133-.69v-.146a.368.368 0 0 1 .006-.134h-.006c.006-.045.017-.068.034-.118v.005l.038-.14v-.006a2.942 2.942 0 0 1 .16-.398c.167-.32.422-.584.737-.763v-.006l.21-.123a4.27 4.27 0 0 1 .487-.275l.155-.09a16.443 16.443 0 0 1 3.57-1.46 14.481 14.481 0 0 1 3.814-.505h.005v.006c2.983 0 5.645 1.195 7.566 3.149 1.92 1.953 3.088 4.669 3.088 7.705h.006v.011h-.006v17.05h.006v.006h-.006c0 .533-.215 1.022-.559 1.375a1.886 1.886 0 0 1-1.345.567v.006h-.005v-.006l-.648.006h-2.335c-.288 0-.565-.05-.82-.14l-.01-.006-.1-.04-.011-.005a2.183 2.183 0 0 1-.377-.197c-.138.068-.276.124-.415.186-.204.078-.415.157-.636.23-1.107.365-2.286.522-3.398.522h-.006c-2.989 0-5.695-1.179-7.649-3.126-.32-.315-.62-.657-.896-1.01-1.423-1.83-2.27-4.154-2.27-6.73v-.005c0-3.12 1.19-5.837 3.138-7.773 1.943-1.931 4.639-3.082 7.677-3.087h.006a8.63 8.63 0 0 1 1.571.157c.21.04.416.09.62.14zm-2.191 13.621h.005c.858 0 1.55-.336 2.026-.875.481-.55.753-1.32.753-2.167v-.016c0-.78-.31-1.55-.814-2.116-.498-.561-1.184-.932-1.96-.932h-.016c-.847 0-1.566.337-2.07.881-.51.545-.808 1.308-.808 2.161v.017c0 .836.31 1.605.825 2.155.509.55 1.228.892 2.053.892h.006m-18.929-3.053V58.06h.398v-.404l4.539-.028a1.085 1.085 0 0 0 .791-.337c.205-.202.332-.488.332-.802h-.005v-.006h.005v-3.749c0-.309-.127-.595-.332-.797a1.096 1.096 0 0 0-.791-.337h-4.937v-6.128c0-.31-.127-.59-.327-.797a1.115 1.115 0 0 0-.791-.337h-4.112a1.09 1.09 0 0 0-.786.337 1.126 1.126 0 0 0-.332.802v6.14l-.399-.006-2.031-.01h-.011a1.11 1.11 0 0 0-.786.33 1.179 1.179 0 0 0-.338.809h.006v3.754h-.006c.006.309.133.59.332.797.205.208.488.337.792.337h2.463v.404c0 2.615-.006 5.23-.011 7.84l-.011 3.923c0 3.39 1.627 6.432 4.217 8.256a9.83 9.83 0 0 0 3.426 1.532h.017c.31.073.63.135.946.174l.194.028c.387.045.77.067 1.146.067h1.344c.305 0 .587-.129.786-.336v.005a1.15 1.15 0 0 0 .332-.808h-.005v-.005h.005V74.79c0-.31-.127-.59-.326-.798a1.118 1.118 0 0 0-.797-.336h-1.317a3.457 3.457 0 0 1-2.602-1.157c-.642-.707-1.012-1.666-1.018-2.7v-.005"/><path fill="#19aeff" d="M280.288 58.464v11.337h-.006c.006.825.3 1.594.809 2.15.498.55 1.2.897 2.02.897h1.317a1.93 1.93 0 0 1 1.356.573v.005c.343.348.553.831.559 1.364v3.923c0 .533-.216 1.022-.56 1.375a1.863 1.863 0 0 1-1.344.573h-1.35c-.421 0-.836-.028-1.24-.073l-.2-.028a10.583 10.583 0 0 1-1.023-.186l-.011-.005a10.737 10.737 0 0 1-1.96-.657 10.132 10.132 0 0 1-1.743-.999c-2.8-1.97-4.56-5.259-4.56-8.918l.01-3.923c.006-2.475.011-4.955.011-7.436h-1.671a1.881 1.881 0 0 1-1.35-.572 1.953 1.953 0 0 1-.56-1.37h-.005V52.74h.005c0-.54.216-1.028.565-1.381.343-.348.82-.567 1.345-.567h.011l1.638.011v-5.326c0-.539.216-1.027.565-1.375a1.887 1.887 0 0 1 1.34-.572h4.117c.526 0 1.007.224 1.35.572.344.348.56.836.56 1.37h.005v5.32h4.14c.531 0 1.013.219 1.356.572.343.348.553.831.559 1.37v3.755a1.956 1.956 0 0 1-.742 1.537c-.32.258-.73.41-1.168.41l-4.145.028m43.934 15.193h-1.317a3.556 3.556 0 0 1-2.629-1.145c-.653-.696-1.04-1.662-1.04-2.711h-.006v-.006h.006V41.852h-.006v-.012h.006a1.171 1.171 0 0 0-.333-.797 1.105 1.105 0 0 0-.791-.336H314c-.305 0-.581.129-.786.33v.006a1.16 1.16 0 0 0-.332.803v27.95c0 3.417 1.638 6.47 4.256 8.289a9.848 9.848 0 0 0 3.465 1.514h.016c.31.074.626.13.936.17l.193.022c.382.039.759.061 1.135.061h1.345c.304 0 .58-.129.786-.336a1.15 1.15 0 0 0 .332-.803h-.006v-.005h.006V74.79c0-.31-.128-.59-.332-.798a1.096 1.096 0 0 0-.792-.336"/><path fill="#19aeff" d="M324.222 72.848a1.922 1.922 0 0 1 1.356.578v-.005c.343.353.554.836.56 1.37v3.921a1.94 1.94 0 0 1-.565 1.375 1.878 1.878 0 0 1-1.34.573h-1.35c-.415 0-.825-.023-1.223-.068h-.006l-.194-.022v-.006a9.68 9.68 0 0 1-1.007-.174h-.016a11.184 11.184 0 0 1-1.976-.645 10.352 10.352 0 0 1-1.771-.994c-2.829-1.964-4.6-5.264-4.6-8.957V41.846c0-.539.222-1.027.565-1.375a1.886 1.886 0 0 1 1.345-.572h4.112c.531 0 1.007.218 1.356.572.343.354.553.836.559 1.37v.01l-.006 27.944h.006v.006h-.006c.006.836.31 1.605.83 2.155.51.55 1.23.892 2.054.892h1.317m-56.359.809h-1.323a3.556 3.556 0 0 1-2.63-1.145c-.652-.696-1.04-1.662-1.04-2.711h-.005V52.734h.005a1.146 1.146 0 0 0-.332-.797 1.096 1.096 0 0 0-.791-.337h-4.112c-.305 0-.582.13-.786.331a1.15 1.15 0 0 0-.332.809h.005v17.055c0 3.418 1.633 6.471 4.25 8.29a9.76 9.76 0 0 0 3.465 1.514h.017c.31.074.625.13.935.17l.194.022c.382.039.764.061 1.135.061h1.35c.305 0 .581-.129.78-.336.205-.202.333-.489.333-.803V74.79c0-.308-.128-.595-.327-.797a1.115 1.115 0 0 0-.791-.336"/><path fill="#19aeff" d="M267.857 72.848h.006a1.91 1.91 0 0 1 1.35.578c.343.348.554.831.56 1.364v3.923a1.95 1.95 0 0 1-.565 1.375c-.344.348-.82.567-1.34.573h-1.35c-.41 0-.82-.023-1.223-.068h-.006l-.194-.022v-.006a9.68 9.68 0 0 1-1.007-.174h-.017a11.184 11.184 0 0 1-1.975-.645 10.352 10.352 0 0 1-1.772-.994c-2.828-1.964-4.599-5.264-4.599-8.957V52.74c0-.54.221-1.028.565-1.381a1.886 1.886 0 0 1 1.345-.567h4.112c.531 0 1.007.219 1.356.572.343.348.553.837.559 1.37V69.8c0 .836.31 1.605.824 2.155.51.55 1.23.892 2.054.892h1.317m-38.477.81h-1.317a3.556 3.556 0 0 1-2.63-1.145c-.652-.696-1.04-1.662-1.045-2.711v-.006l.005-17.05h-.005v-.011h.005a1.171 1.171 0 0 0-.332-.797 1.115 1.115 0 0 0-.791-.337h-4.113c-.304 0-.586.13-.785.331a1.15 1.15 0 0 0-.333.809v17.055c0 3.418 1.639 6.471 4.257 8.29a9.29 9.29 0 0 0 1.632.914 9.922 9.922 0 0 0 1.832.6h.011c.316.074.631.13.941.17l.194.022c.376.039.758.061 1.135.061h1.345c.304 0 .586-.129.785-.336.205-.208.333-.489.333-.803V74.79c0-.308-.128-.59-.333-.797a1.105 1.105 0 0 0-.791-.336"/><path fill="#19aeff" d="M229.38 72.848a1.94 1.94 0 0 1 1.356.573c.343.353.554.836.559 1.37v3.922c0 .533-.216 1.022-.565 1.375a1.913 1.913 0 0 1-1.339.573h-1.35c-.415 0-.825-.023-1.224-.068h-.005l-.194-.022-.005-.006a9.829 9.829 0 0 1-1.008-.174h-.016a11.49 11.49 0 0 1-1.976-.645 10.516 10.516 0 0 1-1.766-.994c-2.828-1.964-4.599-5.264-4.599-8.957V52.74c0-.54.221-1.028.565-1.381a1.885 1.885 0 0 1 1.344-.567h4.113c.531 0 1.007.219 1.35.572.343.348.56.831.56 1.37h.005v.011h-.006v17.05h.006v.006h-.006c0 .836.31 1.605.83 2.155.51.55 1.23.892 2.054.892h1.317m-10.217-26.22h4.112c.305 0 .581-.13.786-.337.2-.208.327-.488.327-.803v-.005l.005-3.631h-.005v-.012h.005a1.182 1.182 0 0 0-.332-.797 1.096 1.096 0 0 0-.791-.336h-4.113c-.304 0-.58.129-.785.33v.006a1.146 1.146 0 0 0-.333.803v3.642c0 .315.128.595.333.803.204.208.487.337.791.337"/><path fill="#19aeff" d="M219.163 47.436a1.881 1.881 0 0 1-1.35-.573 1.968 1.968 0 0 1-.565-1.369v-3.648c0-.533.216-1.027.565-1.375a1.886 1.886 0 0 1 1.344-.572h4.113c.526 0 1.007.218 1.35.572.343.348.56.836.56 1.37h.005v.01h-.006v3.632h.006v.005h-.006c0 .534-.216 1.022-.559 1.375a1.891 1.891 0 0 1-1.345.573h-4.112m38.477-.808h4.112c.31 0 .587-.13.786-.337.205-.208.332-.494.332-.803h-.005V41.84h.005a1.146 1.146 0 0 0-.332-.797 1.096 1.096 0 0 0-.791-.336h-4.112c-.305 0-.587.129-.786.336a1.126 1.126 0 0 0-.332.803h.005v3.642h-.005c.005.315.127.6.332.803.204.208.481.337.791.337"/><path fill="#19aeff" d="M257.646 47.436h-.006a1.881 1.881 0 0 1-1.35-.573 1.982 1.982 0 0 1-.565-1.369v-3.648c0-.533.221-1.027.565-1.375a1.886 1.886 0 0 1 1.345-.572h4.112c.531 0 1.007.218 1.356.572.343.354.553.836.559 1.37v3.647c0 .534-.216 1.022-.565 1.375a1.913 1.913 0 0 1-1.34.573h-4.111m-51.229 3.16v-7.684h-.006V41.84h.006c0-.533.216-1.027.559-1.375a1.924 1.924 0 0 1 1.345-.572h4.117a1.89 1.89 0 0 1 1.345.572c.349.354.57.842.57 1.381h-.005v27.955c0 3.12-1.19 5.837-3.133 7.773-1.942 1.93-4.643 3.087-7.676 3.087h-.017c-2.983 0-5.645-1.196-7.566-3.154-1.915-1.954-3.088-4.664-3.088-7.7v-8.705a10.92 10.92 0 0 1 3.127-7.678c1.926-1.964 4.588-3.182 7.527-3.182v-.006h.006c.597 0 1.173.04 1.737.124.388.056.77.135 1.152.236zm.055 19.2-.006-8.689v-.005c0-.848-.287-1.617-.791-2.167h.006a2.732 2.732 0 0 0-2.037-.886v.005h-.011v-.005c-.842.005-1.55.342-2.043.886-.498.55-.791 1.314-.791 2.161v8.705c0 .797.299 1.566.797 2.133.493.555 1.184.914 1.976.914h.01c.875 0 1.595-.33 2.093-.87.504-.544.791-1.307.797-2.172h-.006v-.01h.006"/><path fill="#19aeff" fill-rule="evenodd" d="M206.81 51.14v-9.294c0-.853.68-1.549 1.522-1.549h4.1c.842 0 1.523.696 1.523 1.55l-.006 6.268v21.68c0 6.022-4.56 10.462-10.421 10.462-5.751 0-10.267-4.602-10.267-10.462v-8.688c0-5.769 4.605-10.46 10.267-10.46 1.162 0 2.225.14 3.282.493zm50.836-4.108c-.842 0-1.522-.696-1.522-1.55v-3.63c0-.853.68-1.55 1.522-1.55h4.1c.837 0 1.517.697 1.517 1.55v3.63c0 .854-.68 1.55-1.516 1.55h-4.101zm-38.483 0c-.836 0-1.516-.696-1.516-1.55v-3.63c0-.853.68-1.55 1.516-1.55h4.101c.841 0 1.522.697 1.522 1.55v3.63c0 .854-.68 1.55-1.522 1.55h-4.101zm10.217 26.22c.836 0 1.517.696 1.517 1.55v3.906c0 .853-.681 1.549-1.517 1.549h-1.312c-.797 0-1.6-.09-2.38-.259-4.748-1.05-8.041-5.258-8.041-10.203v-17.05c0-.853.68-1.549 1.516-1.549h4.101c.841 0 1.522.69 1.522 1.544v17.055c0 1.892 1.39 3.457 3.282 3.457h1.312zm38.477 0c.836 0 1.517.696 1.517 1.55v3.906c0 .853-.676 1.549-1.517 1.549h-1.312c-.797 0-1.594-.09-2.374-.259-4.749-1.05-8.047-5.258-8.047-10.203v-17.05c0-.859.68-1.549 1.522-1.549h4.1c.837 0 1.517.69 1.517 1.544v17.055c0 1.892 1.395 3.457 3.282 3.457h1.312zm56.365 0c.836 0 1.517.696 1.517 1.55v3.906c0 .853-.681 1.549-1.517 1.549h-1.311c-.797 0-1.6-.09-2.375-.259-4.754-1.05-8.047-5.258-8.047-10.203V41.852c0-.853.68-1.55 1.522-1.55h4.101c.836 0 1.516.697 1.516 1.55v27.943c0 1.892 1.395 3.457 3.283 3.457h1.311zM279.89 58.06v11.735c0 1.864 1.345 3.457 3.233 3.457h1.306c.836 0 1.516.696 1.516 1.55v3.906c0 .853-.675 1.549-1.516 1.549h-1.306a10.85 10.85 0 0 1-2.408-.275c-4.699-1.084-7.964-5.282-7.964-10.187.005-3.923.016-7.84.022-11.763h-2.065c-.84 0-1.522-.696-1.522-1.55v-3.737c0-.859.687-1.549 1.528-1.549l2.037.017v-5.73c0-.853.68-1.55 1.516-1.55h4.101c.842 0 1.522.697 1.522 1.55v5.713h4.539c.836 0 1.516.69 1.516 1.544v3.743c0 .853-.675 1.549-1.516 1.549 0 0-3.06.022-4.539.028zm21.486 1.802c-.437-1.269-1.522-2.212-2.955-2.212-1.478 0-2.646.286-3.924 1.027l-.742.427c-.73.42-1.66.157-2.07-.59l-1.87-3.361c-.134-.23-.2-.494-.2-.763 0-.304-.028-.124.055-.416.105-.393.36-.73.709-.931.221-.13.47-.292.686-.399l.16-.084c2.292-1.257 4.594-1.914 7.196-1.914 5.75 0 10.266 4.597 10.266 10.461v17.05c0 .854-.68 1.544-1.516 1.544l-.648.006h-2.324a2.01 2.01 0 0 1-1.29-.455c-1.361.702-2.989 1.005-4.488 1.005-5.773 0-10.422-4.535-10.422-10.462 0-6.016 4.56-10.461 10.422-10.461 1.024 0 1.992.224 2.955.528zm-65.464 23.016c1.5 1.217 3.155 1.79 5.07 1.79 1.428 0 3.769-.354 3.769-2.25 0-1.898-2.369-2.19-3.764-2.19h-4.156c-.842 0-1.522-.695-1.522-1.548v-8.144c0-.078-.011-.348-.083-.443-2.795-2.313-4.13-4.77-4.13-8.52 0-5.915 4.683-10.41 10.428-10.405.891 0 1.633.05 2.485.298.172.05.282.078.432.084.15-.073.332-.197.465-.275 1.51-.915 2.784-1.398 4.588-1.426h.924c.842 0 1.522.69 1.522 1.544v3.94c0 .774-.564 1.425-1.29 1.537l.078.157.072.135c.725 1.409.99 2.885.985 4.467 0 5.624-3.985 9.985-9.397 10.411-.006.472-.006 1.01-.012 1.482 5.148.275 9.465 3.25 9.465 8.951 0 6.18-5.258 9.199-10.804 9.199-2.883 0-6.575-1.083-8.839-2.963l-.747-.612a1.574 1.574 0 0 1-.37-1.964l1.848-3.362c.21-.399.592-.68 1.03-.769a1.51 1.51 0 0 1 1.233.303c.166.13.532.393.72.573zm-29.046-13.083v-8.688c0-1.902-1.312-3.457-3.232-3.457-1.92 0-3.227 1.55-3.227 3.457v8.688c0 1.802 1.334 3.457 3.177 3.457 1.976 0 3.282-1.51 3.282-3.457zm91.555 3.457c1.959 0 3.182-1.554 3.176-3.457 0-1.768-1.372-3.457-3.176-3.457-1.926 0-3.282 1.532-3.282 3.457 0 1.892 1.394 3.457 3.282 3.457zm-56.897-8.171c1.91 0 3.177-1.577 3.177-3.452 0-1.93-1.262-3.462-3.232-3.462-1.915 0-3.227 1.549-3.227 3.462 0 1.892 1.39 3.452 3.282 3.452"/></svg>