<svg xmlns="http://www.w3.org/2000/svg" width="476.85" height="124.574" viewBox="0 0 126.166 32.96"><g paint-order="markers fill stroke" transform="translate(-30.81 -168.742)"><g fill="#00528c" stroke-width=".026" aria-label="PRANA" font-family="Battlefield" font-size="24.713" letter-spacing="1.844" style="-inkscape-font-specification:&quot;Palatino Linotype&quot;"><path fill="#000" d="M41.668 194.968v-9.255h10.874c0 .657-.094 1.178-.28 1.563a2.018 2.018 0 0 1-.838.865c-.356.192-.805.32-1.347.385-.525.048-1.135.072-1.83.072H43.15v3.365h7.105c.88 0 1.728-.128 2.54-.384a7.046 7.046 0 0 0 2.16-1.154 5.505 5.505 0 0 0 1.525-1.803c.39-.721.584-1.53.584-2.428v-3.87H37.145v12.644zm19.122 0h4.521v-9.255h10.874c0 .657-.093 1.178-.28 1.563a1.894 1.894 0 0 1-.787.865c-.338.192-.77.32-1.295.385-.509.048-1.11.072-1.804.072h-5.49v3.365h4.55l3.2 3.005h5.108l-3.405-3.245a6.019 6.019 0 0 0 1.728-.673 6.028 6.028 0 0 0 2.591-2.837 5.02 5.02 0 0 0 .407-2.019v-3.87H60.789zm23.516 0h4.522v-3.005h10.874v3.005h4.523v-12.644h-13.11q-1.448 0-2.693.433-1.245.408-2.16 1.202-.914.769-1.448 1.899-.508 1.13-.508 2.548zm8.968-9.255h6.428v2.933H88.828q.026-.913.356-1.49.356-.577.94-.89.584-.336 1.372-.432.813-.12 1.778-.12zm18.538-3.389q.254 0 1.016.288.787.265 1.854.77 1.067.48 2.312 1.153 1.245.65 2.44 1.419 1.194.769 2.21 1.61 1.041.818 1.702 1.659v-6.899h4.522v12.644h-3.887q-.686-.77-1.6-1.61-.915-.866-1.982-1.707-1.042-.866-2.16-1.635-1.092-.793-2.16-1.418-1.04-.65-1.98-1.058-.941-.408-1.627-.505v7.933h-4.522v-12.644z" style="-inkscape-font-specification:Battlefield"/><path fill="#ff7c00" d="M138.402 182.324c-.965 0-1.863.144-2.692.433-.83.272-1.55.673-2.16 1.202a5.53 5.53 0 0 0-1.449 1.898c-.338.754-.507 1.603-.507 2.549v6.562h4.522v-3.005h9.248v-3.317h-9.248c.017-.61.136-1.106.356-1.49a2.44 2.44 0 0 1 .94-.89 3.6 3.6 0 0 1 1.372-.432 12.19 12.19 0 0 1 1.778-.12h6.428v9.253h4.522v-12.644z" style="-inkscape-font-specification:Battlefield"/></g><path d="M37.145 179.263h113.57v1.172H37.145z"/><circle cx="142.292" cy="174.655" r="2.581"/></g></svg>